<svg id="svg2" xmlns:cc="http://creativecommons.org/ns#" xmlns:dc="http://purl.org/dc/elements/1.1/" xmlns:rdf="http://www.w3.org/1999/02/22-rdf-syntax-ns#" xmlns:svg="http://www.w3.org/2000/svg" xmlns="http://www.w3.org/2000/svg" xmlns:xlink="http://www.w3.org/1999/xlink" viewBox="0 0 640 160" style="enable-background:new 0 0 640 160"><style>.st0{clip-path:url(#SVGID_00000021831549694506628340000010486221580966598326_)}.st1{fill:#395ea5}.st2{fill:#373535}.st3{fill:url(#path116_00000036950676676930238180000007177089639544202174_)}.st4{clip-path:url(#SVGID_00000166641922564627884370000010116170705290003371_)}.st5{opacity:.1;clip-path:url(#SVGID_00000091003113776998531410000012297715281262922164_)}.st6{fill-rule:evenodd;clip-rule:evenodd;fill:url(#path150_00000018926350379515529150000007871058269512072097_)}.st7{fill:url(#path184_00000006682074920743327110000001739479444046551441_)}.st8{fill:url(#path206_00000075146465563047297730000013237936326039742395_)}.st9{fill:url(#path228_00000025439226660374977150000000297063330753127579_)}.st10{fill:url(#path250_00000065781932634630774950000007037863468694591119_)}.st11{fill:url(#path272_00000053530447196816326090000004236739552195952776_)}.st12{fill:url(#path294_00000039111689084980824670000017932427924069992330_)}.st13{fill:url(#path316_00000175301195803146238770000005516517644530702252_)}.st14{fill:url(#path338_00000119115743155290444000000012778354336425251217_)}.st15{fill:url(#path360_00000109708368320537730480000017872099010936184724_)}.st16{display:none;clip-path:url(#SVGID_00000003820337950625032760000004621972659853755542_)}.st17{display:inline}.st18{filter:url(#Adobe_OpacityMaskFilter)}.st19{clip-path:url(#SVGID_00000011001930961038489660000017516319526943542955_)}.st20{clip-path:url(#SVGID_00000100340843364579345610000007098629259124202120_)}.st21{filter:url(#Adobe_OpacityMaskFilter_00000002343962099548803650000011852412268751673984_)}.st22{clip-path:url(#SVGID_00000107583133143490508860000007455406448769003396_)}.st23{clip-path:url(#SVGID_00000114765097377696224840000010498541484116490933_)}.st24{clip-path:url(#SVGID_00000107583133143490508860000007455406448769003396_);mask:url(#mask394_00000015317033388137509980000003053990491095343519_)}.st25{fill-rule:evenodd;clip-rule:evenodd;fill:url(#path426_00000062169999622683402590000011461293545933726362_)}.st26{clip-path:url(#SVGID_00000114754850762000784080000014406828799521747862_)}.st27{fill-rule:evenodd;clip-rule:evenodd;fill:url(#path472_00000150068478237579754150000009422368041613190040_)}.st28{opacity:.47;clip-path:url(#SVGID_00000127025808681893529070000014941867099413085571_)}.st29{fill-rule:evenodd;clip-rule:evenodd;fill:url(#path506_00000061442461264393115050000000209538255954386352_)}</style><g id="g10" transform="matrix(1.3333333,0,0,-1.3333333,0,160)"><g id="g12"><g><defs><path id="SVGID_1_" d="M-80-20h640v160H-80z"/></defs><clipPath id="SVGID_00000070111256966289167360000008764103931634451636_"><use xlink:href="#SVGID_1_" style="overflow:visible"/></clipPath><g id="g14" style="clip-path:url(#SVGID_00000070111256966289167360000008764103931634451636_)"><g id="g20" transform="translate(54.6727,56.3715)"><path id="path22" class="st1" d="M0 0-12.6 30-25.5.0H0zM1.5-4h-28.7l-5-11.7c-1.2-2.8-1.9-5-1.9-6.5.0-.6.1-1.1.3-1.6.2-.5.6-.9 1.2-1.4.6-.4 1.5-.8 2.6-1 1.1-.3 2.6-.5 4.4-.6v-2h-23.3v2c3.1.5 5.1 1.3 6 2.1.9.9 1.9 2.2 2.9 4 1 1.8 2.1 4 3.3 6.7l26.1 61h1.9l25.8-61.7c1.1-2.6 2-4.6 2.9-6.1.9-1.5 1.8-2.8 2.8-3.6.9-.9 2-1.4 3.1-1.8 1.1-.3 2.4-.5 4-.6v-2H.7v2c1.5.1 2.7.2 3.7.5 1 .3 1.8.6 2.3 1 .6.4 1 .9 1.2 1.4.2.5.4 1.1.4 1.7.0.8-.1 1.8-.5 3.1C7.3-18 6.7-16.5 6-14.7L1.5-4z"/></g><g id="g24" transform="translate(108.8413,65.6091)"><path id="path26" class="st1" d="M0 0c.7.0 1.3.0 1.8.0.5.0.9.0 1.3.0 3.5.0 6.6.4 9.3 1.2 2.7.8 4.9 2 6.7 3.4 1.8 1.5 3.1 3.2 4 5.2.9 2 1.3 4.1 1.3 6.5.0 2.3-.4 4.4-1.1 6.3-.8 1.9-1.9 3.6-3.3 4.9-1.4 1.4-3.1 2.5-5 3.2s-4.1 1.1-6.4 1.1c-1.1.0-2.3-.1-3.7-.2-1.4-.2-3-.4-4.9-.8V0zM52.6-38.1H32.9L7.8-3.4C6.8-3.5 6-3.5 5.2-3.5c-.7.0-1.4.0-2 0-.5.0-1 0-1.5.0-.5.0-1.1.0-1.7.1V-25c0-4.7.5-7.6 1.5-8.7 1.4-1.6 3.5-2.4 6.2-2.4h2.9v-2h-31.8v2h2.8c3.1.0 5.3 1 6.7 3.1.8 1.1 1.1 3.8 1.1 8v47.9c0 4.7-.5 7.6-1.5 8.7-1.4 1.6-3.5 2.4-6.3 2.4h-2.8v2h27c7.8.0 13.6-.6 17.4-1.7 1.9-.5 3.6-1.4 5.2-2.5 1.6-1.1 3-2.4 4.3-3.9 1.2-1.5 2.2-3.2 2.9-5 .7-1.9 1.1-3.8 1.1-6 0-2.3-.4-4.4-1.1-6.4-.7-2-1.8-3.8-3.4-5.4-1.5-1.6-3.4-3.1-5.7-4.3-2.3-1.2-5-2.2-8.1-2.8l15.3-21.3c3.5-4.9 6.5-8.2 9-9.7 2.5-1.6 5.8-2.6 9.8-3.1v-2z"/></g><g id="g28" transform="translate(207.6675,101.6304)"><path id="path30" class="st1" d="M0 0h25.9v-2h-1.4c-.4.0-1-.1-1.8-.3-.7-.2-1.5-.5-2.4-.9-.8-.4-1.7-.9-2.6-1.5-.9-.6-1.7-1.3-2.4-2.1-.8-.8-1.6-1.8-2.5-3.1-.9-1.3-1.9-2.8-3-4.5L-8.1-42.7v-18.6c0-4.6.5-7.4 1.5-8.5 1.3-1.5 3.5-2.3 6.6-2.3h2.4v-2h-31.5v2h2.6c3.1.0 5.4.9 6.7 2.8.8 1.1 1.2 3.8 1.2 8v17.5l-20.3 31c-1.2 1.9-2.2 3.3-3 4.5-.8 1.1-1.4 1.9-1.9 2.4-.2.2-.6.5-1.1 1-.5.4-1.1.8-1.9 1.3-.8.4-1.6.8-2.5 1.1C-50.3-2.2-51.3-2-52.3-2v2h31.7v-2h-1.6c-.8.0-1.6-.1-2.4-.3-.8-.2-1.6-.5-2.2-.9-.7-.4-1.2-.9-1.6-1.5-.4-.6-.6-1.3-.6-2.2.0-1.3 1.1-3.7 3.3-7.1l15.5-23.9L4.2-15c2.2 3.4 3.3 6 3.3 7.7C7.4-6.6 7.3-5.8 7-5.2 6.7-4.5 6.3-4 5.8-3.5 5.2-3 4.5-2.7 3.6-2.4 2.6-2.2 1.4-2 0-2V0z"/></g><g id="g32" transform="translate(286.488,103.3249)"><path id="path34" class="st1" d="M0 0v-25.6h-2c-.7 4.9-1.8 8.8-3.6 11.8-.8 1.5-1.9 2.8-3.1 3.9-1.3 1.2-2.6 2.2-4.1 3s-3 1.5-4.7 1.9c-1.7.5-3.3.7-5 .7-1.9.0-3.6-.3-5.2-1-1.6-.6-3-1.5-4.2-2.5-1.2-1.1-2.1-2.3-2.8-3.6-.7-1.4-1-2.8-1-4.2.0-2 .5-3.8 1.4-5.3.9-1.5 2.3-2.9 3.9-4.2 1.7-1.3 3.6-2.5 5.8-3.7 2.2-1.2 4.7-2.5 7.3-3.9 3-1.6 5.8-3.1 8.4-4.6 2.7-1.5 5-3.1 7-4.9 2-1.8 3.6-3.9 4.8-6.2 1.2-2.3 1.8-5.1 1.8-8.3.0-2.8-.6-5.4-1.7-7.9s-2.8-4.7-4.8-6.6c-2.1-1.9-4.5-3.4-7.4-4.5-2.9-1.1-6-1.7-9.4-1.7-1.3.0-2.4.0-3.3.1s-1.8.1-2.6.2c-.8.1-1.7.3-2.6.6-.9.3-2 .6-3.2 1.1-.9.3-1.8.6-2.7.9-.9.3-1.7.5-2.5.7-.8.2-1.4.3-1.9.4-.5.1-.9.2-1 .2-.9.0-1.6-.3-2.2-.8-.5-.5-.9-1.7-1.2-3.4h-2v25.4h2c.5-2.7 1-5 1.7-7 .6-2 1.4-3.7 2.2-5 .8-1.3 1.8-2.5 3.1-3.7 1.3-1.1 2.7-2.1 4.3-2.9s3.3-1.5 5.1-1.9c1.8-.5 3.7-.7 5.7-.7 2.3.0 4.4.3 6.2 1s3.4 1.5 4.6 2.7c1.3 1.1 2.3 2.4 2.9 3.9s1 3 1 4.6c0 2.4-.5 4.4-1.5 6-1 1.6-2.3 3.1-4 4.3-1.7 1.3-3.6 2.5-5.8 3.7-2.2 1.2-4.5 2.5-7 3.9-2.8 1.6-5.4 3.2-8 4.7-2.6 1.5-4.8 3.1-6.8 4.9-2 1.8-3.5 3.8-4.7 6-1.2 2.3-1.8 5-1.8 8.1.0 2.6.5 5.1 1.6 7.5 1.1 2.4 2.6 4.4 4.5 6.2 1.9 1.8 4.2 3.2 6.9 4.2 2.6 1 5.5 1.6 8.7 1.6 3.9.0 8-1 12.5-2.9 2-.9 3.4-1.4 4.3-1.4.9.0 1.7.3 2.3.8C-2.9-2.9-2.4-1.7-2 0H0z"/></g><g id="g36" transform="translate(160.992,5.7437)"><path id="path38" class="st2" d="M0 0v9.2h-3.3v1.9h8.8V9.2H2.2V0H0z"/></g><g id="g40" transform="translate(171.5908,5.7437)"><path id="path42" class="st2" d="M0 0v11.1h8.3V9.2h-6V6.8h5.6V4.9H2.2v-3h6.2V0H0z"/></g><g id="g44" transform="translate(192.6898,9.8357)"><path id="path46" class="st2" d="M0 0l2.2-.7C1.8-1.9 1.3-2.8.5-3.4c-.8-.6-1.8-.9-3-.9-1.5.0-2.7.5-3.6 1.5-1 1-1.4 2.4-1.4 4.1.0 1.9.5 3.3 1.4 4.3 1 1 2.2 1.5 3.8 1.5C-.9 7.2.2 6.8 1 6 1.5 5.5 1.9 4.9 2.1 4l-2.2-.5c-.1.6-.4 1-.8 1.4-.4.3-.9.5-1.5.5-.8.0-1.5-.3-2-.9-.5-.6-.8-1.6-.8-2.9.0-1.4.3-2.4.8-3 .5-.6 1.2-.9 2-.9.6.0 1.1.2 1.5.6C-.5-1.4-.2-.8.0.0"/></g><g id="g48" transform="translate(200.4113,5.7437)"><path id="path50" class="st2" d="M0 0v11.1h2.2V6.7h4.4v4.4h2.2V0H6.7v4.9H2.2V0H0z"/></g><g id="g52" transform="translate(215.2616,5.7437)"><path id="path54" class="st2" d="M0 0v11.1h2.2l4.6-7.4v7.4h2.1V0H6.6L2.1 7.3V0H0z"/></g><g id="g56" transform="translate(231.9345,11.3161)"><path id="path58" class="st2" d="M0 0c0-1.3.3-2.2.9-2.9.6-.6 1.3-1 2.2-1s1.6.3 2.2 1C5.9-2.2 6.2-1.3 6.2.0c0 1.3-.3 2.2-.8 2.9C4.8 3.5 4 3.8 3.1 3.8s-1.7-.3-2.2-1C.3 2.2.0 1.3.0.0M-2.3-.1c0 1.1.2 2.1.5 2.9.3.6.6 1.1 1 1.5.4.5.9.8 1.4 1 .7.3 1.5.4 2.4.4 1.6.0 3-.5 3.9-1.5 1-1 1.5-2.4 1.5-4.2C8.5-1.8 8-3.2 7-4.2c-1-1-2.3-1.5-3.9-1.5-1.7.0-3 .5-3.9 1.5C-1.8-3.2-2.3-1.8-2.3-.1"/></g><g id="g60" transform="translate(245.8358,5.7437)"><path id="path62" class="st2" d="M0 0v11h2.2V1.9h5.6V0H0z"/></g><g id="g64" transform="translate(260.7399,11.3161)"><path id="path66" class="st2" d="M0 0c0-1.3.3-2.2.9-2.9.6-.6 1.3-1 2.2-1s1.6.3 2.2 1C5.9-2.2 6.2-1.3 6.2.0c0 1.3-.3 2.2-.8 2.9C4.8 3.5 4 3.8 3.1 3.8s-1.7-.3-2.2-1C.3 2.2.0 1.3.0.0M-2.3-.1c0 1.1.2 2.1.5 2.9.3.6.6 1.1 1 1.5.4.5.9.8 1.4 1 .7.3 1.5.4 2.4.4 1.6.0 3-.5 3.9-1.5 1-1 1.5-2.4 1.5-4.2C8.5-1.8 8-3.2 7-4.2c-1-1-2.3-1.5-3.9-1.5-1.7.0-3 .5-3.9 1.5C-1.8-3.2-2.3-1.8-2.3-.1"/></g><g id="g68" transform="translate(279.7587,9.8357)"><path id="path70" class="st2" d="M0 0v1.9h4.8v-4.4C4.4-3 3.7-3.4 2.8-3.8 1.9-4.1 1-4.3.1-4.3c-1.2.0-2.2.2-3 .7-.9.5-1.5 1.2-2 2.1-.4.9-.7 1.9-.7 3 0 1.2.2 2.2.7 3.1.5.9 1.2 1.6 2.1 2.1C-2 7-1.1 7.2.0 7.2c1.4.0 2.5-.3 3.2-.9C4 5.8 4.5 5 4.7 4L2.5 3.5C2.3 4.1 2 4.5 1.6 4.8 1.1 5.1.6 5.3.0 5.3c-1 0-1.8-.3-2.3-.9C-3 3.8-3.2 2.8-3.2 1.6c0-1.3.3-2.3.9-3 .6-.7 1.4-1 2.3-1 .5.0.9.1 1.4.3.5.2.9.4 1.2.7V0H0z"/></g><path id="path72" class="st2" d="M290.2 16.9h2.2V5.7h-2.2V16.9z"/><g id="g74" transform="translate(298.2082,5.7437)"><path id="path76" class="st2" d="M0 0v11.1h8.3V9.2h-6V6.8h5.6V4.9H2.2v-3h6.2V0H0z"/></g><g id="g78" transform="translate(311.6167,9.365)"><path id="path80" class="st2" d="M0 0l2.2.2C2.3-.5 2.6-1.1 3-1.4c.4-.3.9-.5 1.6-.5.7.0 1.3.2 1.6.5.4.3.6.7.6 1.1.0.3-.1.5-.2.7C6.4.5 6.1.6 5.8.8 5.5.9 4.9 1 4 1.3 2.8 1.6 1.9 1.9 1.4 2.4c-.7.6-1 1.4-1 2.2.0.6.2 1.1.5 1.6.3.5.8.9 1.4 1.1s1.3.4 2.2.4c1.4.0 2.4-.3 3.2-.9.7-.6 1.1-1.4 1.1-2.5L6.5 4.2c-.1.6-.3 1-.6 1.2C5.5 5.7 5.1 5.8 4.4 5.8c-.7.0-1.2-.1-1.5-.4C2.7 5.3 2.6 5 2.6 4.7c0-.3.1-.5.3-.7.3-.2 1-.5 2.1-.7s1.9-.5 2.4-.8c.5-.3.9-.7 1.2-1.1C8.9.9 9 .3 9-.4 9-1 8.9-1.6 8.5-2.2 8.2-2.7 7.7-3.1 7-3.4 6.4-3.7 5.6-3.8 4.6-3.8c-1.4.0-2.5.3-3.2 1C.6-2.2.1-1.2.0.0"/></g><g id="g82" transform="translate(152.6912,7.2985)"><path id="path84" class="st1" d="M0 0-147.7 3.9.0 7.8V0z"/></g><g id="g86" transform="translate(327.6049,15.0724)"><path id="path88" class="st1" d="M0 0l137.1-3.9L0-7.8V0z"/></g><g id="g90" transform="translate(394.2801,101.6304)"><path id="path92" class="st1" d="M0 0h20.1l45.3-55.6v42.7c0 4.6-.5 7.4-1.5 8.5C62.5-2.8 60.4-2 57.5-2h-2.6v2h25.8v-2h-2.6C75-2 72.8-3 71.4-4.9c-.8-1.1-1.2-3.8-1.2-8v-62.5h-2L19.4-15.6v-45.6c0-4.6.5-7.4 1.5-8.5 1.3-1.5 3.5-2.3 6.4-2.3h2.6v-2H4.1v2h2.6c3.2.0 5.4.9 6.7 2.8.8 1.1 1.2 3.8 1.2 8v51.5c-1.1 1.3-2 2.3-2.7 3.1-.7.8-1.4 1.4-2.1 1.9S8.4-3.9 7.7-3.6C6.9-3.3 5.9-2.9 4.8-2.5 3.8-2.2 2.2-2 0-2V0z"/></g></g></g></g><g id="g94"><g id="g96"><g id="g102"><g id="g104"><radialGradient id="path116_00000029741558675186278940000014973749922163257784_" cx="59.3434" cy="-40.8068" r="1" gradientTransform="matrix(91.38 0 0 -91.38 -5084.0107 -3642.5171)" gradientUnits="userSpaceOnUse"><stop offset="0" style="stop-color:#63cdf6"/><stop offset="9901e-7" style="stop-color:#63cdf6"/><stop offset=".6" style="stop-color:#0074a9"/><stop offset="1" style="stop-color:#3d3f88"/></radialGradient><path id="path116" style="fill:url(#path116_00000029741558675186278940000014973749922163257784_)" d="M310 97c-4.4-5.4-7.7-11.8-9.3-18.8v0c-.9-3.6-1.3-7.3-1.3-11.1v0c0-4.9.7-9.6 2.1-14v0c6-19.3 23.9-33.3 45.2-33.3v0c21.5.0 39.6 14.3 45.4 33.9v0c1.3 4.3 1.9 8.8 1.9 13.5v0c0 4-.5 7.8-1.4 11.5v0c-1.7 7-5 13.3-9.4 18.7v0c-8.7 10.5-21.8 17.2-36.5 17.2v0C331.8 114.4 318.6 107.7 310 97"/></g></g></g></g><g id="g118"><g><defs><path id="SVGID_00000158025358183049966340000000392958344757455500_" d="M-80-20h640v160H-80z"/></defs><clipPath id="SVGID_00000065060354663896835600000017850326393276596411_"><use xlink:href="#SVGID_00000158025358183049966340000000392958344757455500_" style="overflow:visible"/></clipPath><g id="g120" style="clip-path:url(#SVGID_00000065060354663896835600000017850326393276596411_)"><g id="g126"><g id="g128"/><g id="g162"><g><defs><path id="SVGID_00000078003709388789594490000008508239595212369587_" d="M314.2 9.1h88.9v89.2H314.2z"/></defs><clipPath id="SVGID_00000121248592284577569740000013522871232468477100_"><use xlink:href="#SVGID_00000078003709388789594490000008508239595212369587_" style="overflow:visible"/></clipPath><g id="g160" style="opacity:.1;clip-path:url(#SVGID_00000121248592284577569740000013522871232468477100_)"><g id="g158"><g id="g156"><g id="g154"><g id="g152"><radialGradient id="path150_00000106844701083420725430000011978258605464134039_" cx="58.99" cy="-40.5683" r="1" gradientTransform="matrix(59.4067 0 0 -59.4067 -3145.762 -2356.3069)" gradientUnits="userSpaceOnUse"><stop offset="0" style="stop-color:#292929"/><stop offset=".5678" style="stop-color:#292929"/><stop offset=".6909" style="stop-color:#292929"/><stop offset=".9788" style="stop-color:#292929"/><stop offset="1" style="stop-color:#292929"/></radialGradient><path id="path150" style="fill-rule:evenodd;clip-rule:evenodd;fill:url(#path150_00000106844701083420725430000011978258605464134039_)" d="M372.7 87.2c0 0 1.2-21-29.3-50.1l-18-12.2c0 0 6-5.1 27.9-4.6.0.0 27.1 2.8 38.8 33.4L372.7 87.2z"/></g></g></g></g></g></g></g></g></g></g></g><g id="g164"><g id="g166"><g id="g172"><g id="g174"><radialGradient id="path184_00000097467234240120603850000011925375620539709109_" cx="59.2681" cy="-40.756" r="1" gradientTransform="matrix(81.9769 0 0 -81.9769 -4514.4712 -3274.2959)" gradientUnits="userSpaceOnUse"><stop offset="0" style="stop-color:#fff"/><stop offset=".4854" style="stop-color:#fff"/><stop offset="1" style="stop-color:#cdcdcd"/></radialGradient><path id="path184" style="fill:url(#path184_00000097467234240120603850000011925375620539709109_)" d="M359 112.2v-.9c0 0 0 0 0-.1v0c0-.1.0-.2.1-.3v0c.1-.1.3-.1.3-.1v0h1.2.4l-.1.3c0 .1.0.1.0.1v0c-.1.1-.1.2-.2.3v0c0 0-.1.1-.1.1v0c0 .1-.1.1-.1.2v0 .3L359 112.2z"/></g></g></g></g><g id="g186"><g id="g188"><g id="g194"><g id="g196"><radialGradient id="path206_00000153706651507133338650000007790903298442913690_" cx="59.2684" cy="-40.7561" r="1" gradientTransform="matrix(82.0055 0 0 -82.0055 -4516.1904 -3275.4915)" gradientUnits="userSpaceOnUse"><stop offset="0" style="stop-color:#fff"/><stop offset=".4854" style="stop-color:#fff"/><stop offset="1" style="stop-color:#cdcdcd"/></radialGradient><path id="path206" style="fill:url(#path206_00000153706651507133338650000007790903298442913690_)" d="M360.7 111c0-.1.0-.1.0-.2v0-.1c0-.1.0-.2.0-.2v0c0 0 0-.1-.2-.1v0c0 0-.1.0-.1.0v0c-.1.0-.1.0-.2.0v0h-.3v-.3c0-.1.0-.2.0-.2v0c0 0 0 0 0 0v0 0h-.3c-.1.0-.2.0-.3-.1v0c-.1-.1-.1-.2-.1-.3v0c0 0 0 0 0-.1v0-.9h.3c.1.0.2.0.2.0v0h0c0 0 0 0 0-.1v0l-.1-.3h.3c.1.0.2.0.2.0v0c0 0 0 0 0-.1v0c-.1-.2.0-.4.1-.5v0c.1-.2.4-.2.6-.3v0c.1.0.1.0.2.0v0c.1.0.2.0.3.0v0c.2.0.5.0.7.2v0c0 0 .1.1.1.1v0c0 0 .1.1.1.1v0c0 0 .1.0.1.0v0c.1.0.2.0.3.1v0c.4.3.6.7.4 1.3v0c0 .1-.1.1-.1.2v0c-.1.2-.2.4-.1.5v0c0 0 0 0 0 0v0c0 0 0 0 .1.0v0c.1.0.3.1.3.4v0 .3.3h-.3c0 0-.1.0-.1.0v0c-.1.0-.1.1-.2.2v0c-.3.2-.6.3-.8.3v0c-.1.0-.1.0-.2.0v0c-.1.0-.1.0-.2.0v0c0 0 0 0 0 0v0c0 0-.1.0-.1.0v0C360.8 111.3 360.7 111.2 360.7 111"/></g></g></g></g><g id="g208"><g id="g210"><g id="g216"><g id="g218"><radialGradient id="path228_00000158711936751300813210000018179202748070023052_" cx="59.2686" cy="-40.7563" r="1" gradientTransform="matrix(82.0314 0 0 -82.0314 -4517.7568 -3276.574)" gradientUnits="userSpaceOnUse"><stop offset="0" style="stop-color:#fff"/><stop offset=".4854" style="stop-color:#fff"/><stop offset="1" style="stop-color:#cdcdcd"/></radialGradient><path id="path228" style="fill:url(#path228_00000158711936751300813210000018179202748070023052_)" d="M363 110.2c-.1-.1-.2-.3-.1-.4v0c0-.1.1-.2.2-.3v0c.1.0.2-.1.3-.2v0c.2-.1.3-.3.3-.5v0l.1-.3.3.1c0 0 0 0 0 0v0c0 0 0 0 0-.2v0-.2h.4c.2.0.6.0.9.4v0c.1.3.1.6.1.9v0c0 .1.0.2.0.2v0 .3h-.3c-.1.0-.2.0-.2.0v0h0c0 0 0 0 0 .1v0l.1.3h-.3c-.1.0-.2.0-.3.0v0c-.2.0-.3.0-.5.0v0C363.6 110.5 363.2 110.5 363 110.2"/></g></g></g></g><g id="g230"><g id="g232"><g id="g238"><g id="g240"><radialGradient id="path250_00000151535460675219809910000008660214919913613185_" cx="59.2687" cy="-40.7563" r="1" gradientTransform="matrix(82.0394 0 0 -82.0394 -4518.2378 -3276.9111)" gradientUnits="userSpaceOnUse"><stop offset="0" style="stop-color:#fff"/><stop offset=".4854" style="stop-color:#fff"/><stop offset="1" style="stop-color:#cdcdcd"/></radialGradient><path id="path250" style="fill:url(#path250_00000151535460675219809910000008660214919913613185_)" d="M363.2 108.4c-.1.0-.2.0-.3-.1v0c-.1-.1-.1-.2-.1-.3v0c0 0 0 0 0-.1v0V107h.8v-.4h1.4c0 0 .1.0.1.0v0c.1.0.2.1.3.1v0c.1.1.1.2.0.3v0 .1c0 .1.0.3.0.4v0c-.1.3-.3.5-.6.5v0c0 0 0 0-.1.0v0h-.1c0 0-.1.0-.1.0v0c0 0 0 .1.0.2v0 .3L363.2 108.4z"/></g></g></g></g><g id="g252"><g id="g254"><g id="g260"><g id="g262"><radialGradient id="path272_00000099637001689406215820000013775085494743870117_" cx="59.2681" cy="-40.756" r="1" gradientTransform="matrix(81.9768 0 0 -81.9768 -4514.4736 -3274.292)" gradientUnits="userSpaceOnUse"><stop offset="0" style="stop-color:#fff"/><stop offset=".4854" style="stop-color:#fff"/><stop offset="1" style="stop-color:#cdcdcd"/></radialGradient><path id="path272" style="fill:url(#path272_00000099637001689406215820000013775085494743870117_)" d="M339.2 113.9c0-.1.1-.1.2-.2v0 0c.1-.1.2-.1.3-.2v0c.2-.2.2-.3.2-.8v0c0-.1.0-.2.0-.3v0c0-.3.0-.5.0-.7v0c0 0-.1.0-.1.0v0c-.1.0-.2.0-.3-.2v0c0-.1-.1-.2-.1-.2v0c-.1-.2-.3-.4-.5-.4v0h-.2V110v-.1c0-.1.0-.3.2-.4v0c.1-.1.2-.2.3-.3v0c.3-.3.6-.6.9-.9v0l.1-.1h1.5c0 0 .1.0.1.0v0c.1.0.1.0.2.0v0c.4.0.6.3.6.5v0c0 .1.0.2.1.4v0c0 .1.0.3.1.4v0c0 0 0 0 0 0v0c.2.0.3.1.3.3v0c0 0 0 .1.0.1v0c0 0 0 0 .2.0v0c.1.0.2.0.2.0v0c.1.0.2.0.2.0v0h.6c.2.0.4.1.4.4v0c0 0 0 0 0 0v0c.1.0.2.0.3.0v0h.1c.2.0.3.1.4.3v0c.1.2.2.4.4.5v0c.1.0.2.1.3.1v0h.4c0 0 .1.0.1.0v0c.1.0.3.1.4.4v0c0 .1.0.1.0.1v0 0h.1c0 0 .4.0.5.2v0c.1.1.1.2.0.4v0c0 .1-.1.2-.1.2v0c0 0-.1.1-.1.1v0c-.1.1.0.4.0.6v0c.1.2.2.3.3.4v0c.1.1.1.1.2.1v0c.3.1.3.5.3.6v0c0 0 0 .1.0.1v0c-.6.0-1.3.0-2 0v0C344.1 114.5 341.6 114.3 339.2 113.9"/></g></g></g></g><g id="g274"><g id="g276"><g id="g282"><g id="g284"><radialGradient id="path294_00000088100067649363773290000012398741111742744729_" cx="59.2682" cy="-40.7561" r="1" gradientTransform="matrix(81.9901 0 0 -81.9901 -4515.2715 -3274.8521)" gradientUnits="userSpaceOnUse"><stop offset="0" style="stop-color:#fff"/><stop offset=".4854" style="stop-color:#fff"/><stop offset="1" style="stop-color:#cdcdcd"/></radialGradient><path id="path294" style="fill:url(#path294_00000088100067649363773290000012398741111742744729_)" d="M366.2 110.1c0-.1.0-.1.0-.2v0c0 0 0 0 0 0v0c0-.1.0-.2.1-.3v0c0-.1.1-.1.2-.1v0c0 0 .1.0.1.0v0c0 0 0-.2.0-.3v0c0-.1.0-.1.0-.2v0c0-.1.0-.2.0-.2v0c0 0 0 0-.1.0v0l-.3.1v-.8c0 0 0-.1.0-.1v0c0-.2.0-.5.3-.6v0c.1.0.3-.1.4-.3v0c0 0 .1-.1.1-.1v0c.1-.1.2-.3.4-.4v0c.1.0.1-.1.2-.2v0c0 0 0-.1.0-.1v0c0 0 0 0-.1.0v0c-.1.0-.2-.1-.2-.1v0l-.1.2h-1.2c0 0 0 0-.1.0v0c0 0-.1.0-.1.0v0c-.3.0-.4-.2-.4-.3v0c0 0 0-.1.0-.1v0c0 0 0 0-.1.0v0c-.1.0-.1.0-.2.0v0c-.1.0-.1.0-.2.0v0h-.4c-.3.0-.4-.2-.4-.3v0c0 0 0 0 0 0v0c-.1-.1-.2-.1-.3-.1v0h-.1c-.2.0-.5.0-.8-.2v0c-.2-.2-.3-.4-.4-.6v0c0-.1-.1-.2-.1-.2v0c-.1-.1-.1-.2-.2-.3v0c-.1-.1-.3-.2-.5-.3v0l-.3-.1.1-.3c.4-.7.9-1.2 1.5-1.8v0c.2-.2.4-.4.5-.6v0c.8-.8 1.2-1.7 1.3-2.7v0-.3l.3.1c.4.1.6.5.6.9v0c0 .2.0.3.0.3v0c0 0 0 0 .1.0v0 0h1.1c0 0 0 0 .1.0v0c0 0 0 0 .1.0v0c.1.0.3.0.4.3v0c0 .1.1.1.3.1v0c0 0 0 0 .1.0v0c.2.0.3.0.4-.1v0c0 0 0 0 0 0v0c.1-.2.2-.3.4-.3v0c0 0 0 0 .1.0v0c0 0 0 0 .1.0v0c.2.0.3.0.4-.1v0c.1-.1.2-.2.2-.3v0c0-.1.1-.1.1-.2v0c.1-.2.2-.3.4-.3v0h.1c.1.0.3.0.4.0v0c0 0 0 0 0-.1v0l-.1-.3h.4c.3.0.5.0.6-.2v0c.2-.2.3-.4.3-.5v0V96h.3c.1.0.2.0.2.0v0c0 0 0 0 0-.1v0l-.1-.3h1v.3c0 .1.0.1.0.2v0c0 .1.1.1.1.1v0c.1.1.2.3.3.5v0 0 1.6c0 .3-.2.4-.4.5v0c0 0-.1.0-.1.0v0c-.3.1-.5.4-.7.6v0h.1c.1.0.1.0.2.0v0c.2.0.3.0.3.0v0 0c0 0 0 0 0-.1v0l-.1-.3h.3c0 0 .1.0.2.0v0c.1.0.1.0.2.0v0c.2.0.2.0.2.0v0c0 0 0-.1.0-.1v0c0-.1.0-.2.0-.3v0c.1-.2.2-.4.3-.5v0c.1-.1.1-.1.1-.2v0-.2h.2c.1.0.2-.1.3-.1v0c.1-.1.1-.1.2-.3v0c0-.1.1-.1.1-.2v0 0c0-.1.1-.2.4-.2v0c0 0 .1.0.1.0v0c.1.0.4.1.5.3v0c.1.1.1.2.1.3v0c0 0 0 0 0 .1v0c.2.3.4.7.3 1.1v0c0 .7-.5 1.3-.8 1.8v0l-.1.1c-.1.2-.2.3-.3.5v0 0c0 .1.0.2.0.3v0c.1.1.1.2.2.2v0c.1.0.2.1.2.1v0c.3.0.6-.2.8-.3v0c.2-.1.4-.3.5-.4v0l.2-.2c.1-.1.2-.1.3-.1v0c0 0 .1.0.1.0v0c0-.1.0-.3.2-.4v0c.1.0.1-.1.2-.1v0c.3-.1.5-.3.6-.6v0c0 0 0-.1.1-.1v0c.1-.1.1-.3.2-.3v0H378c-.3.0-.4-.1-.5-.4v0 0c0 0 0 0 0 0v0h0c0 0 0 0 0 0v0l-.3.1v-.3c0-.4.1-.8.3-1.2v0 0c.1-.1.2-.3.5-.3v0c0 0 .1.0.1.0v0c0 0 0-.1.0-.1v0c0-.2.0-.7.5-.7v0c0 0 .1.0.1.0v0c.1.0.2.0.2.0v0c0 0 0 0 0 0v0l-.1-.3h.3c.1.0.2-.1.4-.2v0c.2-.1.4-.2.7-.2v0c.1.0.1.0.2.0v0h.2v.2c0 .1.0.2.0.2v0c0 0 0 0 0 0v0 0 0c.1.0.2.0.2.0v0c0 0 0 0 0-.1v0l-.1-.3h.3c0 0 .1.0.2.0v0c0 0 0-.1.0-.1v0c0 0 0-.1.0-.1v0-.5c0 0 0 0 0-.1v0c0-.2.0-.4.4-.4v0c0 0 .1.0.1.0v0c0-.1.0-.3.0-.3v0c0-.1.0-.1.0-.2v0-.3h.3c0 0 .1.0.2.0v0c0-.1.0-.3.0-.4v0 0c-.1-.2-.2-.3-.3-.3v0c0 0-.1.0-.2.0v0l-.3.1V92c0-.1-.2-.1-.3-.1v0c-.2.0-.3.0-.3.1v0c0 0-.1.1-.1.1v0c-.1.3-.4.3-.5.3v0c-.1.0-.2.0-.3.0v0c0 0-.1.0-.1.0v0c-.1.0-.3.0-.4.0v0c0 0 0 0 0 .1v0l.1.3h-.3c-.1.0-.2.1-.3.2v0c-.1.1-.3.2-.5.3v0l-.3.1v-.5c0-.3.0-.6-.1-.8v0c0-.1-.1-.1-.2-.1v0c-.1.0-.2.0-.3.0v0h-.1-.1c-.1.0-.3.0-.3.1v0 .3h-.3c0 0-.1.0-.1.0v0c0 0-.1.0-.1.0v0c-.2.0-.3.0-.3.0v0c0 0 0 0 0 .1v0l.1.3h-.3c-.1.0-.2.0-.2.0v0c0 0 0 0 0 .1v0l.1.3h-.3c-.1.0-.1.0-.2.0v0c-.1.0-.2.0-.4.0v0c-.3.0-.4.1-.4.1v0h0c0 0 0 0 0 0v0l.1.3h-.3c-.1.0-.2.0-.3.0v0c-.1.0-.3.0-.4.0v0c-.1.0-.3.0-.4.0v0c-.1.0-.1.0-.2.0v0c-.1.0-.2.0-.2.1v0c0 .1.0.2.0.4v0l.1.3h-.3c-.1.0-.1.0-.2.0v0c0 0 0 .1.0.1v0c0 0 0 .1.0.1v0 .6h-.3c0 0-.1.0-.2.0v0c0 0 0 0 0 0v0c0 0 0 0 0 .1v0c0 .1.0.3.0.4v0c-.1.2-.4.3-.6.3v0c-.1.0-.2.0-.2.0v0c0 0 0 0 0 .1v0l.1.3h-.3c-.5.0-.7-.3-.9-.6v0c-.1-.2-.2-.3-.4-.3v0c0 0 0 0-.1.0v0c-.2.0-.3.1-.5.2v0c-.1.1-.3.2-.5.2v0c-.4.1-.7.1-1 .1v0c-.1.0-.3.0-.5.0v0c-.1.0-.3.0-.4.0v0h-.3l.1-.3c0 0 0 0 0 0v0c0 0-.1.0-.3.0v0c-.1.0-.1.0-.1.0v0h-.1-.3v-.3c0 0 0-.1.0-.1v0c0 0-.1-.1-.3-.1v0c-.2.0-.3.0-.5.0v0h-.2c-.1.0-.3.0-.5.0v0c-.1.0-.3.0-.4-.1v0c0 0 0 0-.1.0v0V95v.3c-.1.0-.4.0-.5-.3v0c0-.1-.1-.2-.1-.3v0c0 0 0-.1-.1-.2v0-.1c-.2-.3-.4-.4-.8-.4v0c-.2.0-.4-.1-.4-.4v0c0 0 0 0 0 0v0c0 0 0 0 0 0v0c0 0 0 0-.1.0v0c-.1.0-.1.0-.2.0v0c-.1.0-.1.0-.2.0v0c-.4-.1-.4-.7-.4-1v0-.1c0-.3.0-.5-.2-.5v0h-.3l.1-.3c.1-.5.1-.8-.1-.9v0c-.1.0-.2-.1-.3-.1v0c-.1.0-.1.0-.2.0v0c0 0 0 0-.1.0v0c-.1.0-.2.0-.2.0v0c-.3.0-.3-.2-.4-.2v0c0 0-.1-.1-.1-.1v0c-.1.0-.1.0-.3.0v0h0c0 0 0 0 0 0v0c0 0-.1.0-.1.0v0c-.1.0-.2.0-.3-.2v0c0-.1-.1-.1-.1-.2v0c-.2-.4-.3-.7-.3-1.1v0c0-.1.0-.2.0-.3v0c0-.1.0-.2-.1-.3v0c0 0 0 0 0 0v0h-.3v-1c0-.1-.2-.4-.3-.5v0c-.1-.1-.2-.1-.3-.1v0h-.2v-.2c0-.2.0-.3-.1-.4v0c-.1-.2-.2-.3-.3-.4v0c-.1-.1-.2-.1-.3-.1v0l-.2-.1v-.9c0-.3.1-.5.3-.6v0c0-.1.1-.1.1-.2v0c0 0 0-.1.0-.1v0c0-.2.1-.3.3-.3v0h0c0 0 .1.0.1.0v0c0-.1.0-.2.0-.2v0c0-.1.0-.1.0-.2v0c0-.2.1-.4.4-.4v0c0 0 0 0 0 0v0c0 0 0 0 0 0v0c0-.2.0-.3.0-.4v0c0-.1.0-.1.0-.2v0c0-.3-.1-.7-.3-1v0c-.1-.1-.2-.2-.2-.3v0c-.1-.2-.3-.4-.4-.6v0l-.2-.4h.4c0 0 .1.0.2.0v0c0 0 0-.1.0-.2v0c0-.1.0-.1.0-.2v0c0 0 0 0 0-.1v0c0-.1.0-.3.2-.4v0c.1-.1.1-.1.2-.2v0c.1-.1.2-.3.3-.4v0c0 0 0-.1.1-.1v0c.1-.2.1-.4.3-.5v0c.1-.1.2-.2.3-.2v0h.1c.2-.1.4-.3.6-.4v0c.4-.4.6-.8.5-1.4v0c0 0 0-.1.0-.1v0c0-.3-.1-1 .5-1.1v0c.1.0.1.0.2.0v0c.1.0.2.0.2.0v0c0 0 0 0 0 0v0l-.1-.3h.3.3c.6.0.7-.1.7-.1v0c0-.1.1-.3.5-.3v0c.1.0.1.0.2.0v0c0 0 .1.0.1.0v0c0 0 0 0 0 0v0c.1.0.1.0.2.0v0 0c0-.2.1-.4.2-.5v0 0c.2-.3.5-.5.8-.6v0c.2-.1.4-.2.6-.3v0c.1-.1.1-.1.1-.2v0c0 0 0 0 0 0v0c.1-.3.3-.3.4-.3v0h.6v.3c0 .1.0.2.0.2v0c.2.0.3.0.4.0v0h.4v.3c0 0 0 0 0 0v0c.1.1.2.1.3.1v0c.1.0.3.0.3-.1v0c0 0 0 0 .1-.1v0c0-.1.1-.2.3-.2v0h.4c0 0 .1.0.1.0v0c0 0 .1.0.1.0v0c.1-.1.2-.2.3-.3v0c.2-.1.5-.1.7-.1v0h.1c.1.0.2.0.3.0v0h0c.1.0.2.0.3.0v0c.4.0.5.2.5.3v0c0 .1.0.1.0.1v0c0 0 0 0 0 0v0l.3-.1v.3c0 .3.0.4.1.5v0c.1.2.2.3.3.4v0c.1.1.2.1.4.1v0c.1.0.1.0.1.0v0c.1.0.1.0.2.0v0h1c.3.0.7-.2.8-.5v0c.1-.1.1-.3.4-.3v0h.2c.1.0.2.0.3.0v0c0 0 0 0 0 0v0c0 0 0 0 0-.1v0l-.1-.3h.4c.1.0.1.0.2.0v0c.1.0.2.0.4.0v0c.3.0.4-.1.4-.1v0c0 0 0 0 0-.1v0l-.1-.3h.4c.3.0.4.0.6-.1v0c.2-.1.3-.2.4-.3v0c.2-.2.5-.6.5-1v0c0-.2-.1-.4-.2-.6v0c0-.1-.1-.1-.1-.2v0c0-.1-.1-.2-.1-.3v0c0-.1.0-.2-.1-.2v0c0 0 0 0 0 0v0l-.3.1v-.8-.3h.3c.1.0.1.0.2.0v0c0 0 0-.1.0-.2v0c0-.1.0-.1.0-.2v0-.1c0-.3.1-.4.3-.4v0c.1.0.1-.1.2-.1v0c.1-.1.2-.2.3-.4v0c.1-.1.1-.2.2-.4v0c.1-.2.2-.5.3-.7v0c0 0 0-.1.0-.2v0c0-.1.0-.3.0-.4v0c.1-.2.2-.3.3-.5v0c.1.0.1-.1.2-.1v0c.1-.1.2-.2.3-.2v0c0-.1.1-.2.0-.3v0-.1c0-.1.0-.2.0-.4v0-.5h.3c0 0 .1.0.2.0v0c0 0 0 0 0 0v0c0 0 0 0 0-.1v0 0-1c0-.1.0-.1.0-.2v0c0-.2.0-.6-.1-.7v0c0 0 0 0 0 0v0l-.3.1v-1.4h.2c.1.0.2-.1.3-.2v0c.1-.1.1-.1.1-.1v0c-.2-.1-.2-.2-.3-.3v0c0 0 0 0 0 0v0c-.1-.2-.2-.3-.3-.4v0c-.1-.1-.2-.2-.3-.3v0c-.1-.1-.1-.3-.2-.4v0c0-.1-.1-.2-.1-.2v0c0 0 0 0 0 0v0l-.3.1v-1.6c0-.1.0-.2.0-.2v0c0 0 0 0 0 0v0l-.3.1v-.3c0-.1.0-.2-.2-.3v0c-.1-.1-.1-.2-.2-.3v0c-.1-.1-.1-.2-.1-.3v0c0 0 0-.1.0-.1v0c0 0 0 0 0 0v0l-.3.1v-4h.3c.1.0.1.0.2.0v0c0 0 0 0 0 0v0c0 0 0-.1.0-.1v0c0 0 0-.1.0-.1v0V49c0-.2.1-.4.3-.4v0c0 0 0 0 0 0v0c0 0 .1.0.1.0v0c0 0 0 0 0-.1v0 0 0c0-.1.0-.1.0-.2v0c0-.5.0-.7-.1-.8v0c0 0 0 0 0 0v0l-.3.1v-3.9l.2-.1c.1.0.2-.1.3-.2v0c.2-.2.3-.4.3-.7v0c.1-.2.1-.5.0-.7v0c-.1-.1-.2-.3-.4-.4v0c-.1-.1-.2-.1-.4-.2v0c-.1.0-.2-.1-.3-.1v0c-.1-.1-.3-.1-.4-.2v0c-.3-.2-.2-.6-.1-.8v0c0 0 0-.1.0-.1v0c0-.2.0-.5.3-.7v0c.1-.1.2-.1.3-.1v0c.2.0.3.1.4.2v0c0 0 .1.1.1.1v0c.3.2.8.2 1.2.2v0c.1.0.4.0.4.0v0c.4.0 1 0 1.4.3v0h.5c0 0 0 0 .1.0v0c0 0 .1.0.1.0v0c.2.0.3.1.4.3v0c0 0 0 .1.1.1v0c.1.2.3.3.6.4v0l.2.1v.2c0 .7.1 1.3.6 1.6v0c.2.1.5.2.9.2v0c.1.0.1.0.2.0v0c.1.0.3.0.4.0v0c.1.0.3.0.4.0v0c.1.0.2.0.3.0v0c.5.1.5.4.5.5v0c0 .2.0.4.0.6v0c0 .1.0.2.0.3v0V45c0 .2-.1.4-.3.4v0c0 0-.1.1-.1.1v0c-.1.2.0.4.1.5v0c0 0 0 0 0 0v0c.2.1.2.2.3.4v0c0 0 0 0 0 .1v0c0 0 0 0 0 0v0 0c0 0 0 0 .1.0v0h.3v.3c0 .1.0.2.0.2v0c0 0 0 0 .1.0v0h.1c.1.0.2.0.3.1v0c.3.1.6.3.7 1v0c.1.4.0.8.0 1.1v0 .3c0 .1.0.4.0.5v0c0 0 0 0 0 0v0l.3-.1v.5c0 .2.0.3.1.5v0c.1.1.2.2.4.3v0c.1.0.1.0.2.1v0c.1.1.3.1.4.3v0c.2.2.2.5.2.7v0c0 .1.0.2.0.2v0c0 .1.0.2.0.3v0c.1.2.3.4.4.6v0c.3.4.7.7 1.1 1v0c.1.1.2.1.3.2v0c.2.1.3.2.3.5v0c0 .3.0.5.0.7v0c0 .1.0.3.0.4v0c0 .4.0.7.0 1.1v0c0 .4.1.7.2 1v0c0 .1.1.1.1.1v0c.1.1.1.2.1.3v0 .1c0 0 0 0 0 0v0 0c0 0 0 0 0 0v0l.3-.1v.3c.1.8.0 1.6.0 2.3v0c0 .5.0.9.0 1.4v0c0 .5.0 1 .2 1.6v0c.1.2.1.4.2.5v0 .1.1c0 .1.0.2.0.2v0c0 0 0 0 0 0v0l.3-.1v.3c0 0 0 .1.0.1v0c0 .1.0.4.0.4v0c0 0 0 0 0 0v0l.3-.1v1.5c0 .2-.1.3-.3.4v0c0 0 0 0 0 0v0c-.1.1-.1.3-.1.6v0c0 .1.0.2.0.2v0 .1c0 .3.0.7.1.9v0c0 0 0 0 0 0v0c.1.0.3.1.3.4v0c0 .1.0.2.0.2v0c0 .2.0.4.0.5v0c0 .1.0.2.0.3v0c0 .2.0.4.1.5v0c0 .1.1.1.1.1v0h.2v2c0 0 0 .1.0.2v0c0 .3.0.7-.2.9v0c-.3.3-.6.6-.9.9v0c0 .1-.1.3-.2.4v0 1.2c0 0-.4.0-.4.0v0c0 0 0 0 0 .1v0 0 0c0 .3-.2.5-.3.7v0c0 0 0 .1-.1.1v0c-.1.2-.2.3-.4.4v0c-.1.0-.1.0-.1.0v0c0 0 0 .1.0.1v0c0 .2.1.6-.3.7v0c-.1.0-.1.0-.1.0v0c0 0 0 0 0 0v0c0 .1.0.2.0.3v0c0 .1-.1.1-.1.2v0c-.1.1-.2.2-.3.4v0c-.1.1-.2.2-.3.3v0c-.1.1-.2.2-.3.3v0c-.4.4-.5.9-.3 1.6v0l.1.3h-.3c-.1.0-.2.0-.2.0v0c0 .4-.2.7-.5.9v0 0c-.1.1-.3.3-.3.4v0c-.1.2-.3.3-.4.3v0c0 0 0 0 0 0v0c0 .2.0.3.0.5v0 0 .3h-.3c0 0-.1.0-.2.0v0c0 0 0 0 0 .1v0 .1l-.1.1c-.1.1-.2.3-.3.4v0c-.4.5-.7 1-1 1.5v0l-.2.4c-.3.4-.6.9-1 1.4v0h.5v.2c.1-.1.2-.3.3-.5v0l.1-.2h.2c.1.0.2.0.2.0v0c0 0 0 0 0 0v0c0 0 0 0 0-.1v0l-.1-.3h.3c.1.0.2.0.2.0v0c0-.2.0-.4.0-.5v0-.7h.3c0 0 .1.0.2.0v0c0 0 0 0 0 0v0c0 0 0-.1.0-.1v0c0-.1.0-.2.0-.3v0c.1-.4.4-.5.6-.5v0c.1.0.1.0.2.0v0c.1-.1.3-.2.4-.5v0c.1-.1.1-.2.1-.4v0c0-.2.1-.4.4-.4v0c0 0 0 0 0 0v0c0-.1.0-.2.0-.2v0c0-.2.0-.6.3-.6v0c.1.0.1.0.1.0v0 0c0 0 0-.1.0-.2v0-.2c0-.3.1-.4.3-.4v0c0 0 0 0 0 0v0c0 0 .1.0.1.0v0c0 0 0 0 0-.1v0c0-.1.0-.2.0-.3v0c0-.2.1-.3.2-.5v0c.1-.1.1-.1.1-.2v0c.1-.2.3-.3.4-.3v0c0 0 0 0 0 0v0c0-.1.0-.2.0-.2v0c0-.2.0-.6.3-.6v0c.1.0.1.0.1.0v0h0c0 0 0-.1.0-.2v0-.6c0-.2.1-.4.4-.4v0c0 0 .1.0.0.0v0c0-.2.0-.4.2-.6v0c.2-.3.5-.4.8-.6v0l.6-.3-.2.6c-.3 1-.6 2.2-.9 3.5v0c-.1.6-.2 1.1-.2 1.6v0C386.1 95.9 377.3 105.2 366.2 110.1v0C366.2 110.2 366.2 110.2 366.2 110.1M370.1 100.4l.1.3-.3.1c-.3.1-.4.3-.6.6v0c0 0 0 .1-.1.1v0c0 0 0 0 .1.0v0c.2.0.3-.1.3-.1v0c0 0 0 0 0 0v0l-.1-.3h.3c.1.0.2-.1.3-.2v0c.1-.1.1-.1.2-.2v0c.1-.1.2-.1.3-.2v0c.2-.1.2-.1.3-.2v0c.1-.1.1-.2.2-.3v0 0c0-.1.1-.1.1-.1v0c-.3.0-.4.1-.4.1v0c0 0 0 0 0 .1v0l.1.3h-.3c0 0-.1.0-.1.0v0c0 0-.1.0-.1.0v0C370.2 100.3 370.1 100.4 370.1 100.4v0 0c0 0 0 0 0 0"/></g></g></g></g><g id="g296"><g id="g298"><g id="g304"><g id="g306"><radialGradient id="path316_00000059282863429955831060000001034955232394167946_" cx="59.2656" cy="-40.7543" r="1" gradientTransform="matrix(81.6987 0 0 -81.6987 -4497.6035 -3262.8245)" gradientUnits="userSpaceOnUse"><stop offset="0" style="stop-color:#fff"/><stop offset=".4854" style="stop-color:#fff"/><stop offset="1" style="stop-color:#cdcdcd"/></radialGradient><path id="path316" style="fill:url(#path316_00000059282863429955831060000001034955232394167946_)" d="M391 54.2c.1-.1.2-.2.2-.3v0l.1-.4.3.2c.1.1.2.2.2.3v0c0 .2-.2.4-.6.6v0L391 54.2z"/></g></g></g></g><g id="g318"><g id="g320"><g id="g326"><g id="g328"><radialGradient id="path338_00000003822614843060824830000002301599600795650461_" cx="59.2682" cy="-40.7561" r="1" gradientTransform="matrix(81.9921 0 0 -81.9921 -4515.3916 -3274.9309)" gradientUnits="userSpaceOnUse"><stop offset="0" style="stop-color:#fff"/><stop offset=".4854" style="stop-color:#fff"/><stop offset="1" style="stop-color:#cdcdcd"/></radialGradient><path id="path338" style="fill:url(#path338_00000003822614843060824830000002301599600795650461_)" d="M304 87.8v-.3c0-.2.0-.3.0-.3v0c0 0 0 0 0 0v0h-.2c-.1-.1-.1-.2-.2-.3v0c0 0 0-.1.0-.1v0c0-.1.0-.4.0-.4v0c0 0 0 0 0 0v0h-.2c-.1-.1-.1-.3-.2-.4v0-5.3c0-.1.0-.4.4-.4v0c0 0 0 0 0 0v0c.1.0.1-.1.2-.1v0c0 0 .1-.1.1-.1v0c.2-.1.4-.2.6-.2v0c.1.0.2.0.3-.1v0c.1.0.1-.1.1-.1v0c0 0 0-.1.0-.2v0-.1c0-.2.1-.3.3-.4v0 0c.3-.1.4-.4.5-.7v0l.1-.2h.2.1c0 0 .1.0.1.0v0c.2.0.3.0.3.0v0c0 0 0 0 0-.1v0l-.1-.3h.3c.1.0.2.0.2.0v0h0c0 0 0 0 0-.1v0l-.1-.3h.3c0 0 .1.0.2.0v0c0 0 0-.1.0-.1v0c0-.1.0-.3.1-.5v0c0 0 .1-.1.1-.1v0c.1-.1.1-.2.1-.2v0-.2h.2c.1.0.1.0.1-.1v0c.1-.2.1-.5.0-.8v0c0-.1.0-.2.0-.3v0c0-.1.0-.1.0-.2v0-.1-.2c0-.3.1-.4.3-.4v0c0 0 0 0 0 0v0c0 0 .1.0.1.0v0h0c0 0 0 0 0-.1v0l-.1-.3h1.4c0 0 0 0 .1.0v0h.1c.1.0.2.0.2.1v0-.5c0-.3.2-.4.3-.4v0c0 0 .1.0.1.0v0c.1-.1.1-.4.1-.6v0c0-.1.0-.2.0-.3v0-.4l.4.2c0 0 .1-.2.1-.6v0c0-.4-.1-.6-.1-.6v0l-.4.2v-1.7c0-.1.0-.2.0-.2v0c0 0 0 0-.1.0v0l-.3.1v-.3c0-.1.0-.2-.2-.3v0c-.1-.1-.1-.2-.2-.3v0c-.1-.1-.1-.2-.1-.3v0c0 0 0-.1.0-.1v0c0 0 0 0 0 0v0l-.3.1v-1c0 0 0-.1.0-.1v0c0-.4.0-.8.3-.8v0c0 0 .1-.1.1-.2v0c0 0 0-.1.0-.1v0c0 0 0 0 0 0v0c-.2-.1-.3-.2-.3-.4v0-.1c0-.1.0-.3.0-.4v0c0 0 0 0 0 0v0l-.3.1v-1.5c0 0 0-.1.0-.1v0c0-.2.0-.6.3-.7v0c.1-.1.3-.1.4-.2v0c.4-.3.5-.6.7-1v0c.1-.1.1-.3.2-.4v0c.1-.1.1-.2.2-.4v0c.1-.2.2-.3.3-.5v0c0-.1.1-.2.1-.2v0c.1-.2.1-.3.3-.3v0c0 0 0 0 0 0v0c0 0 .1.0.1.0v0c0 0 0-.1.0-.2v0c0-.1.0-.1.0-.2v0c0 0 0 0 0 0v0c0-.1.0-.2.1-.3v0c0-.1.1-.1.2-.1v0c0 0 .1.0.1.0v0c0 0 0-.2.0-.3v0c0-.1.0-.1.0-.2v0-.3h.3.0c.1.0.1.0.1.0v0c.1-.2.1-.7.0-1v0c0-.3-.1-.5.0-.6v0c0 0 0-.1.0-.1v0c0 0 0-.1.0-.1v0V55h.2c.1.0.1.0.2.0v0c.1-.1.3-.2.4-.5v0c.1-.1.1-.2.1-.3v0 0c0-.3.1-.4.2-.5v0c0 0 .1.0.1.0v0c.1-.1.1-.3.1-.5v0-.3h1.6c0 0 .1.0.2.0v0c0 0 0-.1.0-.1v0c0 0 0-.1.0-.1v0V52c0-.3.2-.4.3-.4v0c0 0 .1.0.1.0v0c0 0 0 0 .1.0v0h.1c0 0 .1.0.1.0v0c.1.0.2.0.2.0v0c.1.0.3.0.3-.1v0c0-.2.2-.3.4-.3v0c0 0 .1.0.1.0v0c0 0 0 0 0 0v0c0 0 .1.0.1.0v0c0 0 .1.0.1.0v0c0 0 .1.0.1.0v0c0 0 .1-.1.1-.2v0c0-.2.0-.5.0-.7v0c0-.2-.1-.4-.1-.6v0c0-.1.0-.2.0-.3v0c0 0 0-.1.0-.1v0c0-.1.0-.5.3-.6v0c.1.0.1.0.1.0v0c0 0 0-.1.0-.2v0-.1c0 0 0 0 0 0v0c0-.1.0-.2.1-.3v0c0-.1.1-.1.2-.1v0c0 0 .1.0.1.0v0c0 0 0 0 0 0v0c0-.1.0-.2.0-.3v0c0-.1.0-.2.0-.2v0V47h.2c.1.0.1.0.1-.1v0c.1-.1.1-.3.1-.5v0c0-.1.0-.3.0-.4v0c0-.2.0-.3.0-.5v0-3.3-.3h.3c0 0 .1.0.2.0v0c0 0 0 0 0-.1v0 0-.3c0-.2.1-.3.3-.4v0c0 0 0 0 0 0v0c.1-.1.1-.3.1-.4v0c0-.3.0-.7.0-1v0c0-.1.0-.3.0-.4v0-.3h.3.0c.1.0.1.0.1.0v0c0 0 .1-.1.1-.5v0c0-.1.0-.2.0-.3v0c0-.1.0-.2.0-.4v0c0-.1.0-.3.0-.4v0c0-.1.0-.2.0-.3v0c-.1-.6.2-1 .7-1.4v0 0c.3-.2.5-.4.6-.7v0-.2h.2c.1.0.2.0.2.0v0h0c0 0 0 0 0-.1v0-.1-.1c0-.2.2-.3.3-.5v0c.1-.1.1-.2.1-.2v0c0-.3.2-.4.3-.4v0c0 0 .1.0.1.0v0h0c0-.3.1-.6.4-.9v0c.1-.1.2-.2.3-.3v0c.3-.2.5-.4.5-.7v0-.2h0c-.1-.1-.1-.2-.1-.3v0c0 0 0 0 0-.1v0 0c0-.1.0-.3.2-.4v0c.1.0.2-.1.2-.1v0c.2-.1.3-.2.3-.3v0c0 0 0-.1.0-.1v0c0-.1.1-.2.3-.3v0c0 0 .1-.1.2-.1v0c.2-.2.5-.2.7-.3v0h.1c0 0 .1.0.1.0v0c0 0 0 0 0 0v0c0 0 0 0 0-.1v0l-.1-.3h.3c0 0 .1.0.1.0v0c0 0 .1.0.2.0v0c.2.0.3.0.3.0v0c0 0 0 0 0-.1v0l-.1-.3h.3c0 0 0 0 .1.0v0c.1.0.2.0.4.0v0c.2.0.5.0.6.2v0c.1.1.1.2.0.4v0c-.1.2-.2.3-.3.5v0c-.1.1-.1.1-.2.2v0c0 0 0 0 0 0v0c0 0 0 0 .1.0v0c0 0 .1.0.1.0v0h.2v.2c0 .1.0.2.0.3v0c0 .2-.1.4-.2.5v0c-.2.2-.4.3-.6.3v0c-.1.0-.1.0-.2.0v0c0 0 0 0 0 .1v0 0 .7c0 0 0 0 0 0v0c0 .1.0.2-.1.3v0c0 0-.1.1-.2.1v0c0 0-.1.0-.1.0v0c0 .3.0.6.0.9v0c0 .1.0.2.0.3v0c0 .3-.1.5-.3.6v0c-.1.1-.1.1-.1.2v0c0 0 0 .1.0.1v0 .2l-.2.1c0 0-.1.0-.1.0v0c0 0-.1.1-.1.1v0c0 0 0 .1.0.1v0c0 0 .1.0.1.0v0c.1.0.2.0.2.0v0c.4.2.5.6.6.9v0 .1c0 .2.1.3.2.4v0c0 0 .1.0.2.0v0c.2.0.4-.1.5-.1v0l.4-.1v.4c0 .1.0.2.0.2v0c0 0 0 0 .1.0v0c0 0 .1.0.1.0v0c0 0 .1.0.1.0v0c.4.0.7.2.9.5v0c.2.5.0.8-.2 1.1v0c-.1.2-.2.3-.2.4v0 .3h-.3c-.1.0-.1.0-.2.0v0c-.2.0-.3.1-.3.1v0c0 0 0 .1.0.2v0h1.7v.2c0 .1.0.2.0.2v0c0 0 0 0 .1.0v0l.3-.1V40c0 .1.0.2.0.3v0c0 .2.0.5.0.7v0c0 0 0 0 0 0v0c0 0 0 0 .1.0v0c.1.0.2.0.3.1v0l.1.1c.4.2.8.5 1.1 1v0c.1.3.1.6.1.9v0 2.5c0 .1.0.2.0.2v0c0 0 0 0 0 0v0l.3-.1v.3c0 .1.0.2.1.3v0c.2.2.2.4.3.5v0 0c.1.2.2.4.6.5v0c.2.0.4.1.6.1v0c.2.0.3.0.5.0v0c.2.0.3.0.5.0v0h.4c.2.0.4.1.4.4v0c0 0 0 0 0 0v0c0 0 0 0 0 0v0 0c0 0 0 0 .1.0v0l.3-.1V48v.2c0 .1.0.3.0.4v0c0 0 .1.0.1.0v0c.1.0.2.0.4.1v0c.1.1.2.1.3.2v0c.1.0.1.1.2.1v0c.1.0.1.0.2.0v0h.1c.2.0.4.1.4.3v0c.1.2.2.4.2.6v0c.1.2.2.5.3.6v0c.1.1.2.2.4.2v0c.6.1.7.4.7.6v0c0 .5.0 1 0 1.5v0c0 .2.0.5.0.7v0 1.7.3h-.3c-.1.0-.1.0-.2.0v0c0 .1.0.3.0.4v0c0 .1.0.2.0.2v0 0h.6c0 0 0 0 .1.0v0c.1.0.1.0.2.0v0c.4.0.4.2.5.3v0c0 .1.0.2.0.3v0c0 0 0 .1.0.1v0c0 .2.1.2.1.2v0h.3l-.1.3c0 0 0 .1.0.1v0c0 0 0 0 0 0v0c0 0 0 0 0 0v0c.1.0.3.0.4.2v0c.1.1.1.2.2.3v0c.3.4.6.7 1 1v0c.1.1.2.1.3.2v0c.3.1.2.5.2.6v0c0 0 0 .1.0.1v0 .3h-.3c0 0-.1.0-.2.0v0c0 .1.0.2.0.6v0c0 0 0 .1.0.1v0c0 0 0 0 0 0v0l.3-.1v1.9h-.3c-.1.0-.2.0-.2.0v0h0c0 0 0 0 0 .1v0l.1.3h-.3c-.1.0-.2.0-.3.0v0c-.1.0-.2.0-.4.0v0c-.5.0-.8.1-1 .3v0c-.1.1-.1.2-.1.3v0c0 0 0 0 0 0v0c-.1.3-.3.3-.4.3v0h-.3c-.2.1-.5.2-.6.4v0c0 0 0 .1-.1.1v0c-.1.2-.2.3-.4.3v0c0 0 0 0-.1.0v0h0c-.1.0-.2.0-.3.0v0c-.1.0-.1.0-.2.0v0h-.1c-.1.0-.3.0-.4.0v0c-.2.0-.3.0-.4.0v0c-.2.0-.3.1-.3.1v0c-.1.2-.4.3-.8.3v0c-.2.0-.4.0-.6.0v0c-.1.0-.2.0-.2.0v0h-.4c-.1.0-.1.0-.2.0v0c0 .2-.1.4-.3.5v0c-.1.0-.2.0-.3.0v0c-.2.0-.3.0-.4.0v0c-.1.0-.1.0-.2.1v0c0 0 0 0 0 0v0c0 .1-.1.3-.3.3v0h0v0c0 0 0 .1.0.1v0c0 .2-.2.3-.4.3v0c0 0-.1.0-.1.0v0c0 0 0 0 0 0v0h-1.4-.6c-.1.0-.3.0-.4.0v0h-.1c-.1.0-.2.0-.3.0v0c-.1.0-.3.0-.4.0v0c0 0-.1.1-.1.1v0c0 .1.0.1.0.1v0c0 0 0 0 0 0v0c0 0 .1.0.1.0v0h.1c.1.0.4.0.6.3v0c0 0 0 .1.0.1v0h.9c0 0 .1.0.1.0v0c.1.0.2.0.3.1v0c0 .1.1.1.1.3v0c0 .1.0.2.0.2v0c0 .3-.1.5-.3.7v0c-.2.3-.6.5-.9.7v0c-.1.0-.1.1-.2.1v0h-.1-.1c0 0-.1.0-.1.0v0c0 0-.1.0-.1.0v0c0 .1-.1.2-.2.3v0c-.2.2-.4.4-.6.5v0 .1c0 0 0 .1.0.1v0 0 0c0 .1-.1.3-.2.4v0c-.2.3-.4.4-.6.6v0c-.1.0-.1.1-.2.1v0c-.1.1-.2.2-.3.2v0c0 0-.1.1-.1.2v0c-.2.2-.3.4-.6.4v0h-.1c-.7.0-.7.1-.7.2v0 .3h-.3c-.2.0-.3.0-.4.0v0c-.2.0-.4.0-.6.1v0c-.1.0-.2.1-.2.2v0c0 0 0 .1-.1.1v0c-.1.2-.1.4-.4.4v0c-.1.0-.1.0-.1.0v0c0 0 0 0 0 .1v0c0 .1.0.2-.1.4v0c-.2.3-.5.4-.7.4v0c-.2.0-.4.0-.6.0v0h-.3c-.1.0-.3.0-.4.0v0c0 .1.1.2.3.3v0l.4.4-.6.1c-.1.0-.2.0-.2.0v0c0 0 0 0 0 .1v0l.1.3h-.7c-.3.0-.4-.1-.4-.3v0 0c0-.1.0-.1.0-.1v0c0 0 0 0 0 0v0c0 0-.1.0-.1.0v0c-.2.1-.5.4-.5.5v0l.1.5-.5-.1c-.3-.1-.5-.1-.7-.1v0c-.3.0-.5.0-.7.1v0c-.2.1-.4.2-.5.3v0c-.2.1-.3.2-.5.3v0c-.2.1-.5.2-.7.2v0c-.1.0-.2.0-.3.0v0c0 0-.1.0-.2.0v0h0c-.2.0-.3-.1-.3-.3v0 0c-.2.4-.7.4-1 .4v0h-.3l.1-.3c0 0 0-.1.0-.1v0c0 0 0 0 0 0v0c-.1.0-.2.0-.2.0v0h-.2c-.1.0-.3.0-.4-.3v0c0-.1-.2-.2-.5-.2v0c-.1.0-.2.0-.4.0v0h-.1-.4l.1-.4c0-.2.2-.3.3-.5v0c.1-.1.1-.1.1-.2v0c0 0 0-.1.0-.1v0-.2c0 0 .2-.1.2-.1v0c-.1-.1-.2-.2-.4-.3v0c0 0-.1.0-.2.0v0c-.1.0-.1.0-.2.0v0c-.1.0-.1.0-.2.0v0h-.1c0 0 0 .1-.1.1v0c-.1.1-.1.2-.2.3v0 .1c0 0-.1.1-.1.2v0c0 0 0 .1-.1.1v0c-.2.4-.5.4-.6.4v0c-.1.0-.3.0-.4-.1v0c0 0-.1.0-.1-.1v0c-.3-.1-.5-.2-.6-.3v0c-.1.1-.2.1-.3.1v0c0 0 0 0-.1.0v0 0c0 0 0 0 0 .1v0c-.1.3-.3.4-.4.4v0c0 0 0 0-.1.0v0c0 .2-.1.4-.2.5v0c0 0 0 .1-.1.1v0c-.1.1-.1.2-.1.4v0c0 .1.0.2.0.3v0c0 0 0 0 .1.0v0c.1.0.2.1.3.1v0c.3.1.6.2.8.5v0c.2.3.1.7.1.9v0 .2h-.2c0 0-.1.0-.2.3v0c0 .2.0.4.0.6v0c0 .2.0.3.0.5v0c0 .1-.1.3-.5.3v0c-.1.0-.2.0-.2.0v0c0 0-.1.0-.1.0v0h0c-.1.0-.2.0-.3.0v0c0 0-.1.0-.2.0v0c-.3.0-.4.1-.4.2v0c0 0 0 .1.0.1v0c0 .1.0.4.0.5v0c0 0 0 0 0 0v0l.3-.1v.3c0 .1.0.2.0.3v0c0 .2.0.4.0.6v0c0 0 0 .1.0.1v0h0c0 0 .1.0.1.0v0c.1.0.1.0.2.0v0c.4.0.8.2.9 1v0c0 .2.0.5.0.7v0c0 .1.0.2.0.3v0 .3h-.4c-.1.0-.3.0-.4.0v0c-.2.0-.3.0-.5-.1v0c-.4-.1-.6-.3-.6-.7v0c0-.1.0-.1.0-.1v0 0c0 0 0 0 0 0v0l-.3.1v-.3c0-.1.0-.2.0-.2v0c0 0 0 0 0 0v0h-.1l-.1-.1c-.1-.1-.3-.2-.4-.3v0l-.1-.1c-.1.0-.1-.1-.2-.2v0c-.2-.2-.4-.4-.6-.5v0c0 .1.0.2.0.3v0c0 .1.0.1.0.1v0V83c0 .2-.1.4-.4.4v0c0 0 0 0 0 0v0c0 0 0 0 0 0v0c0 0 0 .2.0.2v0c0 .1.0.1.0.2v0c0 .2.0.3.0.3v0c0 0 0 0 0 0v0l.3-.1v.3c0 .1.0.2.0.2v0c0 0 0 0 0 0v0l.3-.1v.3V85c0 .1.0.4.0.5v0c0 0 0 0 .1.0v0l.3-.1v.3c0 .1.0.1.0.2v0c0 .5.0.7.1.8v0c0 0 0 0 0 0v0l.3-.1v.3c0 0 0 .1.0.1v0c0 .1.0.4.0.4v0c0 0 0 0 0 0v0l.3-.1v.3c0 0 0 .1.0.2v0c0 .1.0.4.0.4v0h0c0 0 .1.0.1.0v0c.1.0.3.1.3.3v0c0 .1.1.2.1.3v0c.1.1.2.2.4.3v0c.3.2.6.4.7.8v0c0 .1.0.1.0.2v0c0 .1.0.1.0.2v0c.1.0.1.0.2-.1v0c.1.0.1-.1.2-.1v0c.1-.1.3-.1.5-.2v0c.1.0.1.0.2.0v0c.4.0.6.2.9.4v0c.1.0.1.1.2.1v0c.1.1.4.3.6.3v0c.1.0.1.0.2.0v0c.1.0.1.0.2.0v0c.1.0.1.0.2.0v0c.2-.1.3-.4.4-.8v0c.1-.4.0-.8-.1-1v0c0 0-.1-.1-.2-.2v0l-.2-.1v-.5c0-.3.1-.4.3-.4v0c0 0 0 0 0 0v0c0 0 .1.0.1.0v0c0 0 0 0 0-.1v0l-.1-.4.4.1c.6.1.6.8.6 1.2v0c0 .2.0.5.1.5v0c0 0 0 0 0 0v0l.3-.1v.3c0 0 0 .1.0.1v0c0 .1.0.4.0.5v0c0 0 0 0 0 0v0l.3-.1v.3c0 .1.0.1.0.2v0c0 .5.0.7.1.8v0c0 0 0 0 0 0v0 0h0c0 0 0 0 .1.0v0c.1.0.1.0.2.0v0c.3.0.4.1.5.3v0c0 .1.0.1.1.1v0c.1.0.1.1.3.1v0c.1.0.1.0.2.0v0h.3V92c0 0 0 0 0 .1v0c0 .2.0.5-.2.6v0c0 0-.1.0-.1.1v0c0 0-.1.1-.1.2v0c0 0 0 0 0 0v0h.5c0 0 .1.0.1.0v0c.1.0.1.0.2.0v0c.3.0.4.1.5.3v0c.1.3.3.5.5.7v0c.2.2.4.3.6.4v0h.3c.2.0.3.0.4.2v0 0c0 .1.1.2.2.3v0c.1.1.1.1.2.2v0c0 0 .1.0.1.1v0c.1.0.3.2.3.4v0c0 0 0 0 0 .1v0 .6c.1.1.1.2.2.4v0c.3.5.8.8 1.3 1.1v0h0c.1.0.1.0.2.0v0c.4.0.5.2.5.3v0c0 0 0 .1.0.1v0c0 0 .1.0.1.0v0c0 0 .1.0.1.0v0h.6c.3.0.4.2.4.3v0c0 0 0 0 0 .1v0c0 0 .1.1.1.1v0c0 .1.1.1.2.2v0c.1.2.2.5.2.7v0c0 .1.0.1.0.2v0c0 .2.1.2.1.2v0h.2v.2c0 .1.0.2.0.2v0c0 0 0 0 0 0v0h.3c0 0 0 .5.0.5v0c0 0 0 0 .1.0v0c.1.0.2.0.2.0v0c.1.0.1.0.2.0v0h.3c0 0 0 .4.0.4v0h0c0 0 .1.0.2.0v0c.1.0.1.0.2.0v0c.4.0.4.2.5.3v0c0 .1.0.1.0.1v0c0 0 .1.0.1.0v0c0 0 .1.0.1.0v0h.5.1c.2.0.3.1.4.3v0c0 0 .1.1.1.1v0c.1.2.3.4.3.7v0 .3h-1c-.2.0-.4-.1-.4-.3v0c0 0 0 0 0 0v0c-.1.0-.2-.1-.3-.1v0c-.1.0-.1.0-.2.0v0c-.1.0-.2.1-.2.2v0c0 0 0 0 0 0v0c0 0 .1.0.2.0v0h.2c0 0 0 .4.0.4v0c0 0 0 0 .1.0v0c.1.0.2.0.2.0v0c.1.0.2.0.2.0v0h.3c0 0 0 .4.0.4v0c0 0 0 0 .1.0v0c.1.0.2.0.2.0v0c.1.0.2.0.2.0v0h3.2v.3c0 .1.0.1.0.2v0c0 0 0 0 0 0v0l.4-.1-.1.4c0 0 0 0 0 0v0c0 0 0 0 .1.0v0c.2.0.3.1.4.3v0c0 0 0 0 0 0v0c0 0 .1.1.1.1v0c.1.1.3.1.5.1v0c.1.0.2.0.4.0v0c.1.0.3.0.4.0v0c0 0 .1.0.1.0v0c0 0 .1.0.1.0v0c.1.0.1.0.2.0v0c.4.0.5.3.5.4v0c0 .2.0.3.0.5v0c0 .3-.1.5-.2.7v0 .1c-.1.2-.2.3-.2.5v0 1.5l-.3-.1c-.2.0-.3-.2-.5-.3v0c-.1-.1-.1-.1-.2-.1v0c0 0-.1.0-.1.0v0c-.1.0-.2.0-.3.0v0c0 0-.1.0-.1.0v0c-.2.0-.2.1-.2.1v0c0 .1.0.2.0.2v0c0 0 0 0 .1.0v0l.3-.1v.7c0 .3-.2.4-.4.4v0c0 0-.1.0-.1.0v0c0 0 0 0-.1.0v0h-1.8c-.2.0-.4-.1-.4-.3v0c-.1-.2-.3-.5-.5-.5v0c-.1.0-.1.0-.3.0v0c-.1.0-.1.0-.2.0v0c-.1.0-.1.0-.2.0v0h-1v-.3-.1c0-.3.0-.6-.1-.8v0c0 0 0 0-.1.0v0c-.2-.1-.3-.2-.3-.4v0-.1c0-.2.0-.2-.1-.3v0c-.1-.1-.2-.1-.3-.1v0h-.1c-.3.0-.5-.1-.7-.2v0c-.1-.1-.2-.2-.3-.2v0c-.2-.2-.3-.3-.5-.3v0c-.2.0-.3-.2-.3-.4v0 0c0 0-.1.0-.1.0v0c0 0-.1.0-.1.0v0c0 0-.1.0-.1.0v0c0 0 0 .1.1.1v0c.1.1.1.2.2.3v0c.1.3.0.6-.1.8v0c0 .1-.1.1-.1.2v0 .1c0 .1.0.4.0.4v0c0 0 0 0 0 0v0l.3-.1v.5h0c.1.0.2.0.3.1v0c.1.1.1.2.1.3v0c0 0 0 0 0 .1v0 .4c0 .1.0.3.0.4v0c0 0 0 0 .1.0v0l.3-.1v.3c0 .1.0.2.0.2v0 0c0 0 0 0 0 0v0 0h1c0 0 0 0 .1.0v0c0 0 .1.0.1.0v0c.3.0.4.2.4.3v0c0 .1.0.1.0.1v0c0 0 .1.0.2.0v0h.6c.2.0.4.1.4.3v0c0 0 0 0 0 0v0c0 0 0 .1.0.1v0c0 0 0 0 .1.0v0h.2l.1.1c.1.1.1.2.2.3v0c.2.3.3.6.2.9v0c0 0 0 0 0 .1v0C318.3 106.9 309.2 98.5 304 87.8M324.1 100.2v0M305.9 84.6v0"/></g></g></g></g><g id="g340"><g id="g342"><g id="g348"><g id="g350"><radialGradient id="path360_00000019640709635770173110000016331536096988704931_" cx="59.2679" cy="-40.7558" r="1" gradientTransform="matrix(81.9509 0 0 -81.9509 -4512.8921 -3273.2307)" gradientUnits="userSpaceOnUse"><stop offset="0" style="stop-color:#fff"/><stop offset=".4854" style="stop-color:#fff"/><stop offset="1" style="stop-color:#cdcdcd"/></radialGradient><path id="path360" style="fill:url(#path360_00000019640709635770173110000016331536096988704931_)" d="M390.4 53.8c-.2-.1-.3-.3-.5-.4v0c-.2-.2-.3-.5-.3-.8v0-.1c-.1.0-.2.0-.2-.1v0c-.2-.2-.2-.5-.2-.7v0c0 0 0 0 0-.1v0c-.1.0-.1-.1-.2-.1v0c-.4-.3-.3-.8-.3-1.1v0 0c-.1.0-.2-.1-.3-.2v0c-.3-.3-.2-.9-.1-1.4v0c0-.2.1-.5.0-.6v0l-.1-.3.3-.1c.1.0.2.0.3.0v0c.7.0.9.7 1 1v0c0 .1.1.2.1.2v0c0 0 .1.1.1.1v0c.1.2.1.4.1.6v0c0 .1.0.3.0.4v0 .1c0 0 0 .1.0.2v0c0 .1.0.2.0.2v0c0 0 .1.0.1.0v0c.2.1.4.3.4.6v0c0 .1.0.1.0.2v0c0 0 0 .1.0.1v0c0 0 0 0 0 0v0c0 0 .1.0.1.1v0c.7.4 1.2 1.4 1.1 2.2v0l-.1.4-.3-.2c0 .1.0.1.0.2v0l-.6.1C390.9 54.2 390.7 54.1 390.4 53.8"/></g></g></g></g><g id="g362"><g><defs><path id="SVGID_00000119828662424003167340000015577460738386143405_" d="M-80-20h640v160H-80z"/></defs><clipPath id="SVGID_00000136406780675030089540000004238348522235183504_"><use xlink:href="#SVGID_00000119828662424003167340000015577460738386143405_" style="overflow:visible"/></clipPath><g id="g364" style="display:none;clip-path:url(#SVGID_00000136406780675030089540000004238348522235183504_)"><g id="g370" class="st17"><g id="g372"/><defs><filter id="Adobe_OpacityMaskFilter" filterUnits="userSpaceOnUse" x="299.3" y="-114.5" width="94.6" height="94.6"><feColorMatrix type="matrix" values="1 0 0 0 0 0 1 0 0 0 0 0 1 0 0 0 0 0 1 0"/></filter></defs><mask maskUnits="userSpaceOnUse" x="299.3" y="-114.5" width="94.6" height="94.6" id="mask420_00000070814557030500549600000011306022409590247590_"><g id="g446_00000075879107172033299930000006686941446441541256_" class="st18"><g><defs><path id="SVGID_00000083784975409769404640000003701205608620897700_" d="M212.7 22.3h94.6v94.6H212.7z"/></defs><clipPath id="SVGID_00000105420259200058141210000003194028416243487384_"><use xlink:href="#SVGID_00000083784975409769404640000003701205608620897700_" style="overflow:visible"/></clipPath><g id="g444_00000096752231370100782450000003822521454443083962_"><g id="g442_00000125570803352455827490000005766916765660652970_"><g id="g422_00000148637320648494012270000015513624268823831721_"/><g id="g440_00000136369085550254880120000007467783647790055323_"><g><defs><path id="SVGID_00000050656644525503160470000016762141233013587636_" d="M212.7 22.3h94.6v94.6H212.7z"/></defs><clipPath id="SVGID_00000033357320082162885130000015658485388858545056_" style="clip-path:url(#SVGID_00000105420259200058141210000003194028416243487384_)"><use xlink:href="#SVGID_00000050656644525503160470000016762141233013587636_" style="overflow:visible"/></clipPath><g id="g438_00000102519917018384054460000017808015571580063150_"><g id="g436_00000180365140916881264120000001909198684683796096_"><g><defs><path id="SVGID_00000040545738615865877820000002523976063889716138_" d="M295.4 69.6c0 19.6-15.9 35.5-35.5 35.5-19.6.0-35.5-15.9-35.5-35.5.0-19.6 15.9-35.5 35.5-35.5C279.6 34.2 295.4 50 295.4 69.6"/></defs><clipPath id="SVGID_00000044890890950966875810000001063269507150137260_" style="clip-path:url(#SVGID_00000033357320082162885130000015658485388858545056_)"><use xlink:href="#SVGID_00000040545738615865877820000002523976063889716138_" style="overflow:visible"/></clipPath><g id="g434_00000047020446128152863740000013782449917272186044_"><g id="g432_00000054988263514708239190000010392604794273758381_"><g id="g424_00000067932839199016828480000014224212142848134539_"/><defs><filter id="Adobe_OpacityMaskFilter_00000024701649673648319010000000352521645355458965_" filterUnits="userSpaceOnUse" x="224.5" y="-105.1" width="71" height="71"><feColorMatrix type="matrix" values="1 0 0 0 0 0 1 0 0 0 0 0 1 0 0 0 0 0 1 0"/></filter></defs><mask maskUnits="userSpaceOnUse" x="224.5" y="-105.1" width="71" height="71" id="mask394_00000015317033388137509980000003053990491095343519_"><g id="g406_00000118399240231470114360000006477309927120958892_" style="filter:url(#Adobe_OpacityMaskFilter_00000024701649673648319010000000352521645355458965_)"><g><defs><path id="SVGID_00000178163125397432758000000005929767585627176095_" d="M-22346.3-22451.6h32766v32766h-32766z"/></defs><clipPath id="SVGID_00000123404204363978715250000011048376292650915503_" style="clip-path:url(#SVGID_00000044890890950966875810000001063269507150137260_)"><use xlink:href="#SVGID_00000178163125397432758000000005929767585627176095_" style="overflow:visible"/></clipPath><g id="g404_00000071554838917848262000000008149552288566736785_"><g id="g402_00000176030095358051413970000015069618444798289082_"><g id="g396_00000114761400126902766940000008098650732236373895_"/><g id="g400_00000173119861219373041910000015551568182536144011_"><g><defs><path id="SVGID_00000029761367968042003220000002521734148445715594_" d="M-22346.3-22451.6h32766v32766h-32766z"/></defs><clipPath id="SVGID_00000156567206859949011760000012336308607883655305_" style="clip-path:url(#SVGID_00000123404204363978715250000011048376292650915503_)"><use xlink:href="#SVGID_00000029761367968042003220000002521734148445715594_" style="overflow:visible"/></clipPath><g id="g398_00000137821552689983565660000008365405469337584022_"/></g></g></g></g></g></g></mask><g id="g430_00000002361651358418465290000000354707711385131414_" style="clip-path:url(#SVGID_00000044890890950966875810000001063269507150137260_);mask:url(#mask394_00000015317033388137509980000003053990491095343519_)"><g id="g428_00000119808730313706582800000003705843459677309336_"><radialGradient id="path426_00000014624830449224142780000012226375227946714033_" cx="59.0495" cy="-41.8916" r="1" gradientTransform="matrix(63.1251 0 0 63.1251 -3467.5491 2714.0544)" gradientUnits="userSpaceOnUse"><stop offset="0" style="stop-color:#373535"/><stop offset=".5678" style="stop-color:#373535"/><stop offset=".6909" style="stop-color:#373535"/><stop offset=".9788" style="stop-color:#fff"/><stop offset="1" style="stop-color:#fff"/></radialGradient><path id="path426_00000041270641166553906060000013736862291674597760_" style="fill-rule:evenodd;clip-rule:evenodd;fill:url(#path426_00000014624830449224142780000012226375227946714033_)" d="M295.4 69.6c0 19.6-15.9 35.5-35.5 35.5-19.6.0-35.5-15.9-35.5-35.5.0-19.6 15.9-35.5 35.5-35.5C279.6 34.2 295.4 50 295.4 69.6"/></g></g></g></g></g></g></g></g></g></g></g></g></g></mask><g id="g448"><g id="g450"/><g id="g484"><g><defs><path id="SVGID_00000113313251266262187670000016230289500374178743_" d="M283.5 4.1h126.2v126.2H283.5z"/></defs><clipPath id="SVGID_00000018931743211222615260000003214857814430351275_"><use xlink:href="#SVGID_00000113313251266262187670000016230289500374178743_" style="overflow:visible"/></clipPath><g id="g482" style="clip-path:url(#SVGID_00000018931743211222615260000003214857814430351275_)"><g id="g480"><g id="g478"><g id="g476"><g id="g474"><radialGradient id="path472_00000055691564780166911680000004108490055184224411_" cx="59.2871" cy="-40.7688" r="1" gradientTransform="matrix(84.1668 0 0 -84.1668 -4643.3975 -3364.2393)" gradientUnits="userSpaceOnUse"><stop offset="0" style="stop-color:#292929"/><stop offset=".5678" style="stop-color:#292929"/><stop offset=".6909" style="stop-color:#292929"/><stop offset=".9788" style="stop-color:#292929"/><stop offset="1" style="stop-color:#292929"/></radialGradient><path id="path472" style="fill-rule:evenodd;clip-rule:evenodd;fill:url(#path472_00000055691564780166911680000004108490055184224411_)" d="M393.9 67.1c0-26.1-21.2-47.3-47.3-47.3-26.1.0-47.3 21.2-47.3 47.3.0 26.1 21.2 47.3 47.3 47.3C372.7 114.5 393.9 93.3 393.9 67.1"/></g></g></g></g></g></g></g></g></g><g id="g486" class="st17"><g id="g488"/><g id="g518"><g><defs><path id="SVGID_00000158006562302167067830000011617026891729600136_" d="M296.9 42.5h98.9v75.8H296.9z"/></defs><clipPath id="SVGID_00000075127826854145928460000017881484721453205387_"><use xlink:href="#SVGID_00000158006562302167067830000011617026891729600136_" style="overflow:visible"/></clipPath><g id="g516" style="opacity:.47;clip-path:url(#SVGID_00000075127826854145928460000017881484721453205387_)"><g id="g514"><g id="g512"><g id="g510"><g id="g508"><linearGradient id="path506_00000149380933422538264640000003340472773610906542_" gradientUnits="userSpaceOnUse" x1="59.4658" y1="-42.0414" x2="60.4658" y2="-42.0414" gradientTransform="matrix(0 75.8182 75.8182 0 3533.8638 -4456.5952)"><stop offset="0" style="stop-color:#424242"/><stop offset=".2996" style="stop-color:#424242"/><stop offset="1" style="stop-color:#292929"/></linearGradient><path id="path506" style="fill-rule:evenodd;clip-rule:evenodd;fill:url(#path506_00000149380933422538264640000003340472773610906542_)" d="M383.5 80.4c0-15.7-16.6-28.4-37.1-28.4-20.5.0-37.1 12.7-37.1 28.4.0 15.7 16.6 28.4 37.1 28.4C366.9 108.9 383.5 96.1 383.5 80.4"/></g></g></g></g></g></g></g></g></g></g></g></g></svg>